<svg width="94" height="94" viewBox="0 0 94 94" fill="none" xmlns="http://www.w3.org/2000/svg">
<rect x="0.943848" y="0.713623" width="92" height="92" rx="4.5" stroke="black" stroke-opacity="0.5"/>
<path d="M67.186 64.228V29.0556L72.2107 31.9268V61.3568L67.186 64.228Z" fill="#292E32" stroke="#292E32" stroke-width="0.287121"/>
<path d="M40.3403 27.1894L35.3157 24.1746L46.8005 17.4272L61.4437 25.4666V44.1295H55.8449V28.4814L46.8005 23.4568L40.3403 27.1894Z" fill="#00DDB2" stroke="#00DCB2" stroke-width="0.287121"/>
<path d="M32.7314 54.8966V49.1542L61.4436 49.5849L61.1565 67.6735L47.3746 76L32.7314 67.6735V59.2034H38.1868V64.5152L47.3746 69.6834L56.1318 64.5152V54.8966H32.7314Z" fill="#00DDB2" stroke="#00DCB2" stroke-width="0.287121"/>
<path d="M21.6772 61.2132L26.989 64.3716V34.7981L29.8602 33.2189L32.5879 34.7981V48.867H38.3303V37.9564L46.9439 43.2682L50.8201 41.2583V34.7981L46.9439 37.2386L29.286 27.4765L21.6772 31.9269V61.2132Z" fill="#292E32" stroke="#292E32" stroke-width="0.287121"/>
</svg>
